<?xml version="1.0" standalone="no"?>
<!DOCTYPE svg PUBLIC "-//W3C//DTD SVG 20010904//EN"
 "http://www.w3.org/TR/2001/REC-SVG-20010904/DTD/svg10.dtd">
<svg version="1.0" xmlns="http://www.w3.org/2000/svg"
 width="512.000000pt" height="512.000000pt" viewBox="0 0 512.000000 512.000000"
 preserveAspectRatio="xMidYMid meet">
<metadata>
Created by potrace 1.14, written by Peter Selinger 2001-2017
</metadata>
<g transform="translate(0.000000,512.000000) scale(0.100000,-0.100000)"
fill="#000000" stroke="none">
<path d="M1100 5060 l0 -60 60 0 60 0 0 -60 0 -60 -60 0 -60 0 0 -125 0 -125
-125 0 -125 0 0 -60 0 -60 -240 0 -240 0 0 -60 0 -60 -185 0 -185 0 0 -305 0
-305 60 0 60 0 0 -60 0 -60 60 0 60 0 0 -65 0 -65 -60 0 -60 0 0 -60 0 -60 60
0 60 0 0 -180 0 -180 -60 0 -60 0 0 -675 0 -675 60 0 60 0 0 -240 0 -240 -60
0 -60 0 0 -430 0 -430 -60 0 -60 0 0 -180 0 -180 550 0 550 0 0 120 0 120 60
0 60 0 0 -60 0 -60 60 0 60 0 0 -60 0 -60 365 0 365 0 0 60 0 60 65 0 65 0 0
-60 0 -60 60 0 60 0 0 120 0 120 -60 0 -60 0 0 60 0 60 -65 0 -65 0 0 65 0 65
-60 0 -60 0 0 60 0 60 -60 0 -60 0 0 60 0 60 -60 0 -60 0 0 305 0 305 60 0 60
0 0 120 0 120 120 0 120 0 0 -60 0 -60 65 0 65 0 0 60 0 60 60 0 60 0 0 60 0
60 120 0 120 0 0 65 0 65 -365 0 -365 0 0 -65 0 -65 -60 0 -60 0 0 125 0 125
60 0 60 0 0 120 0 120 60 0 60 0 0 60 0 60 60 0 60 0 0 125 0 125 65 0 65 0 0
120 0 120 60 0 60 0 0 -120 0 -120 60 0 60 0 0 -125 0 -125 60 0 60 0 0 -60 0
-60 60 0 60 0 0 -60 0 -60 65 0 65 0 0 -60 0 -60 60 0 60 0 0 -60 0 -60 60 0
60 0 0 -65 0 -65 120 0 120 0 0 245 0 245 65 0 65 0 0 125 0 125 60 0 60 0 0
120 0 120 60 0 60 0 0 -120 0 -120 120 0 120 0 0 -65 0 -65 60 0 60 0 0 -60 0
-60 65 0 65 0 0 -60 0 -60 -305 0 -305 0 0 -60 0 -60 -60 0 -60 0 0 -125 0
-125 120 0 120 0 0 65 0 65 60 0 60 0 0 60 0 60 120 0 120 0 0 -125 0 -125 65
0 65 0 0 -240 0 -240 -65 0 -65 0 0 -185 0 -185 -60 0 -60 0 0 -120 0 -120
-60 0 -60 0 0 -125 0 -125 -120 0 -120 0 0 65 0 65 -125 0 -125 0 0 60 0 60
-60 0 -60 0 0 -60 0 -60 60 0 60 0 0 -65 0 -65 125 0 125 0 0 -120 0 -120
-490 0 -490 0 0 -60 0 -60 670 0 670 0 0 60 0 60 60 0 60 0 0 -60 0 -60 370 0
370 0 0 120 0 120 120 0 120 0 0 60 0 60 -60 0 -60 0 0 65 0 65 -60 0 -60 0 0
180 0 180 -65 0 -65 0 0 305 0 305 65 0 65 0 0 120 0 120 60 0 60 0 0 550 0
550 -60 0 -60 0 0 125 0 125 -65 0 -65 0 0 240 0 240 -60 0 -60 0 0 185 0 185
-60 0 -60 0 0 120 0 120 -60 0 -60 0 0 125 0 125 60 0 60 0 0 60 0 60 60 0 60
0 0 60 0 60 60 0 60 0 0 -60 0 -60 65 0 65 0 0 60 0 60 120 0 120 0 0 125 0
125 60 0 60 0 0 60 0 60 -120 0 -120 0 0 60 0 60 -125 0 -125 0 0 -60 0 -60
-120 0 -120 0 0 60 0 60 -60 0 -60 0 0 -60 0 -60 -185 0 -185 0 0 60 0 60
-120 0 -120 0 0 -60 0 -60 -60 0 -60 0 0 -60 0 -60 -125 0 -125 0 0 60 0 60
-180 0 -180 0 0 60 0 60 -60 0 -60 0 0 -60 0 -60 -65 0 -65 0 0 60 0 60 -60 0
-60 0 0 -60 0 -60 -60 0 -60 0 0 60 0 60 -670 0 -670 0 0 -60z m730 -120 l0
-60 730 0 730 0 0 -65 0 -65 125 0 125 0 0 -60 0 -60 60 0 60 0 0 125 0 125
365 0 365 0 0 -65 0 -65 -120 0 -120 0 0 -60 0 -60 -245 0 -245 0 0 -60 0 -60
60 0 60 0 0 -60 0 -60 120 0 120 0 0 -125 0 -125 -60 0 -60 0 0 -60 0 -60 60
0 60 0 0 -180 0 -180 -60 0 -60 0 0 -65 0 -65 -120 0 -120 0 0 -60 0 -60 -185
0 -185 0 0 -120 0 -120 -60 0 -60 0 0 -60 0 -60 -60 0 -60 0 0 -65 0 -65 -245
0 -245 0 0 65 0 65 -120 0 -120 0 0 120 0 120 -60 0 -60 0 0 60 0 60 -125 0
-125 0 0 -60 0 -60 -120 0 -120 0 0 120 0 120 -60 0 -60 0 0 -180 0 -180 -65
0 -65 0 0 60 0 60 -120 0 -120 0 0 120 0 120 60 0 60 0 0 125 0 125 -60 0 -60
0 0 245 0 245 -120 0 -120 0 0 60 0 60 -65 0 -65 0 0 -60 0 -60 -120 0 -120 0
0 60 0 60 120 0 120 0 0 60 0 60 65 0 65 0 0 -60 0 -60 60 0 60 0 0 60 0 60
60 0 60 0 0 60 0 60 60 0 60 0 0 60 0 60 -60 0 -60 0 0 65 0 65 60 0 60 0 0
-65 0 -65 245 0 245 0 0 65 0 65 -60 0 -60 0 0 60 0 60 60 0 60 0 0 -60z
m-1340 -1100 l0 -60 245 0 245 0 0 -60 0 -60 -65 0 -65 0 0 -65 0 -65 -60 0
-60 0 0 -120 0 -120 -60 0 -60 0 0 -60 0 -60 -60 0 -60 0 0 120 0 120 -60 0
-60 0 0 125 0 125 -65 0 -65 0 0 60 0 60 -60 0 -60 0 0 60 0 60 185 0 185 0 0
-60z m3900 0 l0 -60 -60 0 -60 0 0 60 0 60 60 0 60 0 0 -60z m120 -370 l0 -60
-60 0 -60 0 0 60 0 60 60 0 60 0 0 -60z m-3660 -605 l0 -185 -120 0 -120 0 0
120 0 120 60 0 60 0 0 65 0 65 60 0 60 0 0 -185z"/>
<path d="M1950 4330 l0 -60 -60 0 -60 0 0 -65 0 -65 -120 0 -120 0 0 -60 0
-60 -65 0 -65 0 0 -60 0 -60 -60 0 -60 0 0 -60 0 -60 60 0 60 0 0 60 0 60 65
0 65 0 0 60 0 60 120 0 120 0 0 60 0 60 60 0 60 0 0 65 0 65 125 0 125 0 0
-65 0 -65 -65 0 -65 0 0 -60 0 -60 -60 0 -60 0 0 -60 0 -60 -60 0 -60 0 0 -60
0 -60 -60 0 -60 0 0 -125 0 -125 60 0 60 0 0 125 0 125 60 0 60 0 0 60 0 60
60 0 60 0 0 60 0 60 65 0 65 0 0 60 0 60 120 0 120 0 0 65 0 65 120 0 120 0 0
-65 0 -65 65 0 65 0 0 65 0 65 -65 0 -65 0 0 60 0 60 -365 0 -365 0 0 -60z"/>
<path d="M3540 4205 l0 -65 180 0 180 0 0 65 0 65 -180 0 -180 0 0 -65z"/>
<path d="M2440 3595 l0 -65 -60 0 -60 0 0 -120 0 -120 60 0 60 0 0 120 0 120
60 0 60 0 0 65 0 65 -60 0 -60 0 0 -65z"/>
<path d="M3050 3595 l0 -65 60 0 60 0 0 -60 0 -60 60 0 60 0 0 60 0 60 -60 0
-60 0 0 65 0 65 -60 0 -60 0 0 -65z"/>
<path d="M4510 4205 l0 -65 60 0 60 0 0 65 0 65 -60 0 -60 0 0 -65z"/>
</g>
</svg>
