<?xml version="1.0" standalone="no"?>
<!DOCTYPE svg PUBLIC "-//W3C//DTD SVG 20010904//EN"
 "http://www.w3.org/TR/2001/REC-SVG-20010904/DTD/svg10.dtd">
<svg version="1.0" xmlns="http://www.w3.org/2000/svg"
 width="1024.000000pt" height="1024.000000pt" viewBox="0 0 1024.000000 1024.000000"
 preserveAspectRatio="xMidYMid meet">
<metadata>
Created by potrace 1.14, written by Peter Selinger 2001-2017
</metadata>
<g transform="translate(0.000000,1024.000000) scale(0.100000,-0.100000)"
fill="#000000" stroke="none">
<path d="M3682 10085 c0 -86 -2 -158 -6 -162 -3 -3 -42 -6 -86 -5 l-81 2 3
-163 3 -162 -77 2 -76 3 1 -83 2 -82 -82 3 -81 2 1 -82 2 -83 -88 2 -88 1 3
-161 3 -162 -77 3 -78 3 3 -83 2 -83 -158 2 -158 2 3 -162 3 -162 -87 3 -86 2
1 -82 2 -83 -83 2 -82 1 2 -81 3 -82 -78 3 -78 2 3 -162 3 -163 -87 3 -87 2 2
-242 2 -243 -82 2 -82 1 2 -481 2 -482 -77 2 -78 3 0 -483 0 -482 -84 3 -84 2
-1 -297 c0 -164 0 -306 0 -315 -1 -16 -12 -18 -80 -18 l-80 0 2 -322 2 -323
-77 3 -78 4 0 -161 0 -161 -84 0 -85 0 2 -242 2 -243 -81 3 -82 3 0 -161 c0
-89 -3 -164 -6 -167 -3 -4 -37 -6 -76 -5 l-70 1 0 -154 0 -155 -84 0 -85 0 2
-160 2 -160 -82 0 -82 0 2 -165 c2 -141 0 -165 -13 -166 -8 0 -45 0 -82 0
l-66 1 1 -155 2 -155 -82 0 -83 0 0 -855 0 -855 4399 0 4400 0 -1 132 -1 133
82 3 81 3 -2 77 -2 77 77 3 77 3 0 79 0 80 85 0 85 0 -2 75 c-1 41 0 77 3 79
2 3 39 6 81 7 l77 2 -1 239 0 239 -82 -3 -81 -3 2 65 c1 36 2 73 2 83 1 16 19
17 241 17 185 0 240 -3 241 -12 0 -7 0 -43 0 -81 l-1 -67 158 2 158 2 0 156 0
157 -315 2 c-174 1 -318 4 -320 7 -3 2 -4 38 -3 80 l2 75 -168 -3 -167 -3 3
156 3 156 -72 1 c-39 1 -74 3 -77 6 -3 3 -4 42 -4 86 l1 80 -79 0 c-57 0 -80
4 -81 13 -3 77 0 940 4 943 3 3 39 5 80 5 l75 0 0 1280 0 1280 -82 -3 -81 -3
0 315 0 315 -85 0 -85 0 0 325 0 325 166 -2 166 -3 1 156 c0 86 3 158 6 161 2
3 74 5 160 5 l156 0 -3 77 -2 76 -85 0 -85 0 0 85 0 85 87 -3 86 -3 -1 83 -2
83 82 -3 81 -2 -1 82 -2 83 78 -3 78 -2 -3 82 -3 83 87 -3 86 -2 -1 82 -2 83
82 -3 81 -2 -1 82 -2 83 83 -2 83 -1 -1 36 c-1 21 -2 57 -1 82 l1 45 80 -3 81
-2 -3 77 -3 78 -158 1 -157 2 2 -82 3 -81 -78 1 c-43 1 -80 4 -83 7 -3 3 -6
39 -5 80 l1 75 -483 -1 -482 -2 0 80 0 80 -480 0 -480 0 3 82 3 81 -403 -1
-403 -2 3 82 2 81 -157 -1 -158 -2 3 82 3 82 -168 -2 -168 -2 0 80 0 80 -473
1 c-260 1 -476 4 -479 7 -2 3 -5 39 -4 80 l1 75 -319 0 -318 1 -1 -76 c-1 -41
-3 -78 -6 -81 -7 -6 -146 -5 -153 2 -3 2 -5 39 -5 80 l0 77 -87 -3 -86 -3 3
243 3 242 -395 0 -395 0 1 -155z"/>
</g>
</svg>
